<svg width="128" height="128" viewBox="0 0 128 128" fill="none" xmlns="http://www.w3.org/2000/svg">
  <rect width="128" height="128" fill="white" />
  <path d="M64.5393 43.88L64.3473 52.616V71.144C64.3473 73.832 65.1793 75.912 66.8433 77.384C68.5073 78.856 70.4593 79.592 72.6993 79.592C74.9393 79.592 76.8593 78.856 78.4593 77.384C80.1233 75.912 80.9553 73.832 80.9553 71.144V42.536C80.9553 39.528 81.3393 37.32 82.1073 35.912C82.9393 34.504 84.6993 33.8 87.3873 33.8H96.2193C98.2673 33.8 99.6753 34.408 100.443 35.624C101.915 37.8 102.651 46.216 102.651 60.872C102.651 65.672 102.587 69.352 102.459 71.912C102.267 77.096 101.051 81.736 98.8113 85.832C96.6353 89.864 93.8193 93.096 90.3633 95.528C83.3873 100.456 75.4833 102.92 66.6513 102.92C55.0033 102.92 45.3713 100.2 37.7553 94.76C33.9153 92.008 30.8753 88.36 28.6353 83.816C26.4593 79.208 25.3393 73.864 25.2753 67.784C25.2113 64.776 25.1793 60.36 25.1793 54.536C25.1793 48.648 25.2433 44.424 25.3713 41.864C25.5633 39.24 26.0753 37.256 26.9073 35.912C27.8033 34.504 29.5633 33.8 32.1873 33.8H57.8193C60.3793 33.8 62.0753 34.472 62.9073 35.816C63.9953 37.544 64.5393 40.232 64.5393 43.88Z" fill="black" />
</svg>
